<?xml version="1.0" encoding="utf-8"?>
<!-- Generator: Adobe Illustrator 18.1.0, SVG Export Plug-In . SVG Version: 6.00 Build 0)  -->
<!DOCTYPE svg PUBLIC "-//W3C//DTD SVG 1.1//EN" "http://www.w3.org/Graphics/SVG/1.1/DTD/svg11.dtd">
<svg version="1.1" id="Layer_1" xmlns="http://www.w3.org/2000/svg" xmlns:xlink="http://www.w3.org/1999/xlink" x="0px" y="0px"
	 viewBox="0 0 72 72" enable-background="new 0 0 72 72" xml:space="preserve">
<g>
	<path d="M32.4,36.4h-2.7v2.5h2.6c0.4,0,1.1-0.1,1.1-1.2C33.4,36.4,32.4,36.4,32.4,36.4z"/>
	<path d="M39.4,35c-1.4,0-1.6,1.4-1.6,1.4h3.1C40.8,36.4,40.8,35,39.4,35z"/>
	<path d="M33,33.9c0-1-0.7-1-0.7-1H32h-2.4V35h2.6C32.7,35,33,34.9,33,33.9z"/>
	<path d="M41.6,27.6H28.7c-1.1,0-2,0.9-2,2v12.9c0,1.1,0.9,2,2,2h12.9c1.1,0,2-0.9,2-2V29.6C43.6,28.5,42.7,27.6,41.6,27.6z
		 M37.3,31.8h3.9v1.2h-3.9V31.8z M35.4,37.8c0,2.9-3,2.8-3,2.8h-2.7h-0.1h-2.1v-9.4h2.1h0.1h2.7c1.5,0,2.6,0.8,2.6,2.5
		s-1.4,1.8-1.4,1.8C35.5,35.5,35.4,37.8,35.4,37.8z M42.6,37.7h-4.8c0,1.7,1.6,1.6,1.6,1.6c1.6,0,1.5-1,1.5-1h1.6
		c0,2.7-3.2,2.5-3.2,2.5c-3.8,0-3.6-3.6-3.6-3.6s0-3.6,3.6-3.6C43.1,33.6,42.6,37.7,42.6,37.7z"/>
</g>
</svg>
