<?xml version="1.0" encoding="utf-8"?>
<!-- Generator: Adobe Illustrator 18.1.0, SVG Export Plug-In . SVG Version: 6.00 Build 0)  -->
<!DOCTYPE svg PUBLIC "-//W3C//DTD SVG 1.1//EN" "http://www.w3.org/Graphics/SVG/1.1/DTD/svg11.dtd">
<svg version="1.1" id="Layer_1" xmlns="http://www.w3.org/2000/svg" xmlns:xlink="http://www.w3.org/1999/xlink" x="0px" y="0px"
	 viewBox="0 0 72 72" enable-background="new 0 0 72 72" xml:space="preserve">
<g>
	<path d="M32.7,35.7c-0.1,0.6,0,1.2,0,2c0,2.2,1.8,3.9,4,3.9c1.9,0,3.5-1.3,3.9-3.1l2.8,0.9c-0.8,2.8-3.4,4.9-6.6,4.9
		c-3.8,0-6.8-3-6.8-6.7l0-1.4L32.7,35.7z"/>
	<polygon points="29.9,29 36.3,27.5 43.3,29 43.3,31.7 36.3,30.3 29.9,31.7 	"/>
	<polygon points="29.9,32.6 36.3,31.1 43.3,32.6 43.3,35.3 36.3,33.9 29.9,35.3 	"/>
</g>
</svg>
