<?xml version="1.0" encoding="utf-8"?>
<!-- Generator: Adobe Illustrator 18.1.0, SVG Export Plug-In . SVG Version: 6.00 Build 0)  -->
<!DOCTYPE svg PUBLIC "-//W3C//DTD SVG 1.1//EN" "http://www.w3.org/Graphics/SVG/1.1/DTD/svg11.dtd">
<svg version="1.1" id="Layer_1" xmlns="http://www.w3.org/2000/svg" xmlns:xlink="http://www.w3.org/1999/xlink" x="0px" y="0px"
	 viewBox="-133 141 46 40" enable-background="new -133 141 46 40" xml:space="preserve">
<g id="open">
	<rect x="-120" y="153" width="20" height="3"/>
	<rect x="-120" y="160" width="20" height="3"/>
	<rect x="-120" y="167" width="20" height="3"/>
</g>
<g id="open_1_">
	<rect x="-120" y="193" fill="#FFFFFF" width="20" height="3"/>
	<rect x="-120" y="200" fill="#FFFFFF" width="20" height="3"/>
	<rect x="-120" y="207" fill="#FFFFFF" width="20" height="3"/>
</g>
<rect x="-74" y="159.5" transform="matrix(-0.7071 -0.7071 0.7071 -0.7071 -223.1115 229.5695)" width="20" height="3"/>
<rect x="-74" y="159.5" transform="matrix(-0.7071 0.7071 -0.7071 -0.7071 4.5841 320.1219)" width="20" height="3"/>
<rect x="-74" y="199.5" transform="matrix(-0.7071 -0.7071 0.7071 -0.7071 -251.3864 297.8456)" fill="#FFFFFF" width="20" height="3"/>
<rect x="-74" y="199.5" transform="matrix(-0.7071 0.7071 -0.7071 -0.7071 32.8557 388.3993)" fill="#FFFFFF" width="20" height="3"/>
</svg>
