<?xml version="1.0" encoding="utf-8"?>
<!-- Generator: Adobe Illustrator 18.1.0, SVG Export Plug-In . SVG Version: 6.00 Build 0)  -->
<!DOCTYPE svg PUBLIC "-//W3C//DTD SVG 1.1//EN" "http://www.w3.org/Graphics/SVG/1.1/DTD/svg11.dtd">
<svg version="1.1" id="Layer_1" xmlns="http://www.w3.org/2000/svg" xmlns:xlink="http://www.w3.org/1999/xlink" x="0px" y="0px"
	 viewBox="0 0 72 72" enable-background="new 0 0 72 72" xml:space="preserve">
<path d="M36,27.6c3.8,0,7.5,0,11.3,0c0.1,0,0.3,0,0.4,0.1c0.2,0.2,0.4,0.4,0.5,0.6c0.1,0.2,0,0.5,0,0.8c0,4.8,0,9.6,0,14.4
	c0,0.1,0,0.3-0.2,0.4c-0.2,0.2-0.4,0.4-0.6,0.5c-0.2,0.1-0.5,0-0.8,0c-7.3,0-14.7,0-22,0c-0.2,0-0.3,0-0.4-0.2
	c-0.2-0.2-0.4-0.3-0.5-0.6s0-0.5,0-0.8c0-4.8,0-9.6,0-14.4c0-0.1,0-0.3,0.1-0.4c0.2-0.2,0.4-0.4,0.6-0.5c0.2-0.1,0.5,0,0.8,0
	C28.8,27.6,32.4,27.6,36,27.6z M33.3,35.9c-2.4,2.4-4.7,4.7-7.1,7.1c6.5,0,13,0,19.5,0c-2.4-2.4-4.7-4.7-7.1-7.1
	c-0.3,0.2-0.5,0.4-0.8,0.6c-0.2,0.1-0.4,0.2-0.7,0.2c-0.7,0-1.4,0-2.1,0c-0.4,0-0.7-0.1-1-0.3C33.8,36.2,33.6,36,33.3,35.9z
	 M26.7,29.1C26.7,29.1,26.7,29.1,26.7,29.1C26.7,29.1,26.7,29.1,26.7,29.1c2.8,2.1,5.5,4.1,8.2,6.2c0.1,0,0.1,0.1,0.2,0.1
	c0.6,0,1.2,0,1.9,0c0.1,0,0.2,0,0.2-0.1c2.7-2,5.4-4,8-6c0.1,0,0.1-0.1,0.2-0.1C39.1,29.1,32.9,29.1,26.7,29.1z M25.2,41.9
	c2.3-2.3,4.6-4.6,7-7c-2.3-1.7-4.6-3.5-7-5.2C25.2,33.8,25.2,37.9,25.2,41.9z M39.9,35c2.3,2.3,4.6,4.6,6.9,6.9c0-4,0-8.1,0-12.1
	C44.5,31.5,42.1,33.3,39.9,35z"/>
</svg>
