<?xml version="1.0" encoding="utf-8"?>
<!-- Generator: Adobe Illustrator 18.1.0, SVG Export Plug-In . SVG Version: 6.00 Build 0)  -->
<!DOCTYPE svg PUBLIC "-//W3C//DTD SVG 1.1//EN" "http://www.w3.org/Graphics/SVG/1.1/DTD/svg11.dtd">
<svg version="1.1" id="Layer_1" xmlns="http://www.w3.org/2000/svg" xmlns:xlink="http://www.w3.org/1999/xlink" x="0px" y="0px"
	 viewBox="0 0 88 462" enable-background="new 0 0 88 462" xml:space="preserve">
<rect x="31.1" y="46.3" width="23.6" height="387.1"/>
<g>
	<path fill="#FFFFFF" d="M40.4,62.5c0,0.4,0,0.8,0,1.3c0,1.4,1.1,2.5,2.6,2.5c1.2,0,2.2-0.8,2.5-2l1.8,0.6c-0.5,1.8-2.2,3.2-4.2,3.2
		c-2.4,0-4.4-1.9-4.4-4.3l0-0.9L40.4,62.5z"/>
	<polygon fill="#FFFFFF" points="38.5,58.2 42.7,57.3 47.2,58.2 47.2,60 42.7,59.1 38.5,60 	"/>
	<polygon fill="#FFFFFF" points="38.5,60.5 42.7,59.6 47.2,60.5 47.2,62.3 42.7,61.4 38.5,62.3 	"/>
</g>
<path fill="#FFFFFF" d="M46.3,75.8h-6.9c-0.6,0-1.1,0.5-1.1,1.1v6.9c0,0.6,0.5,1.1,1.1,1.1h6.9c0.6,0,1.1-0.5,1.1-1.1v-6.9
	C47.4,76.3,46.9,75.8,46.3,75.8z M44.6,77.1c0-0.1,0.1-0.3,0.3-0.3h1.2c0.1,0,0.3,0.1,0.3,0.3v1.2c0,0.1-0.1,0.3-0.3,0.3h-1.2
	c-0.1,0-0.3-0.1-0.3-0.3V77.1z M42.9,78.6c1,0,1.7,0.8,1.7,1.7c0,1-0.8,1.7-1.7,1.7c-1,0-1.7-0.8-1.7-1.7
	C41.1,79.4,41.9,78.6,42.9,78.6z M46.4,83.6c0,0.1-0.1,0.3-0.3,0.3h-6.5c-0.1,0-0.3-0.1-0.3-0.3v-3.9h0.8c-0.1,0.2-0.1,0.5-0.1,0.7
	c0,1.5,1.2,2.7,2.7,2.7c1.5,0,2.7-1.2,2.7-2.7c0-0.3,0-0.5-0.1-0.7h0.8V83.6z"/>
<g>
	<path fill="#FFFFFF" d="M41.4,100H40v1.3h1.4c0.2,0,0.6-0.1,0.6-0.6C41.9,100,41.4,100,41.4,100z"/>
	<path fill="#FFFFFF" d="M45.1,99.3c-0.8,0-0.9,0.8-0.9,0.8h1.6C45.9,100,45.9,99.3,45.1,99.3z"/>
	<path fill="#FFFFFF" d="M41.8,98.7c0-0.5-0.4-0.5-0.4-0.5h-0.2H40v1.1h1.4C41.5,99.3,41.8,99.2,41.8,98.7z"/>
	<path fill="#FFFFFF" d="M46.3,95.4h-6.8c-0.6,0-1.1,0.5-1.1,1.1v6.8c0,0.6,0.5,1.1,1.1,1.1h6.8c0.6,0,1.1-0.5,1.1-1.1v-6.8
		C47.3,95.8,46.9,95.4,46.3,95.4z M44,97.6h2.1v0.6H44V97.6z M43,100.8c0,1.5-1.6,1.5-1.6,1.5H40h0h-1.1v-5h1.1h0h1.4
		c0.8,0,1.4,0.4,1.4,1.3c0,0.9-0.8,0.9-0.8,0.9C43.1,99.6,43,100.8,43,100.8z M46.8,100.7h-2.6c0,0.9,0.9,0.9,0.9,0.9
		c0.8,0,0.8-0.5,0.8-0.5h0.9c0,1.4-1.7,1.3-1.7,1.3c-2,0-1.9-1.9-1.9-1.9s0-1.9,1.9-1.9C47.1,98.6,46.8,100.7,46.8,100.7z"/>
</g>
<path fill="#FFFFFF" d="M47.4,116.2c-0.3,0.1-0.7,0.2-1.1,0.3c0.4-0.2,0.7-0.6,0.8-1c-0.4,0.2-0.8,0.4-1.2,0.5
	c-0.3-0.4-0.8-0.6-1.4-0.6c-1,0-1.9,0.8-1.9,1.9c0,0.1,0,0.3,0,0.4c-1.6-0.1-2.9-0.8-3.9-2c-0.2,0.3-0.3,0.6-0.3,0.9
	c0,0.6,0.3,1.2,0.8,1.6c-0.3,0-0.6-0.1-0.8-0.2c0,0,0,0,0,0c0,0.9,0.6,1.7,1.5,1.8c-0.2,0-0.3,0.1-0.5,0.1c-0.1,0-0.2,0-0.4,0
	c0.2,0.7,0.9,1.3,1.7,1.3c-0.6,0.5-1.4,0.8-2.3,0.8c-0.2,0-0.3,0-0.4,0c0.8,0.5,1.8,0.8,2.9,0.8c3.4,0,5.3-2.8,5.3-5.3
	c0-0.1,0-0.2,0-0.2C46.9,116.9,47.2,116.6,47.4,116.2z"/>
</svg>
