<?xml version="1.0" encoding="utf-8"?>
<!-- Generator: Adobe Illustrator 18.1.0, SVG Export Plug-In . SVG Version: 6.00 Build 0)  -->
<!DOCTYPE svg PUBLIC "-//W3C//DTD SVG 1.1//EN" "http://www.w3.org/Graphics/SVG/1.1/DTD/svg11.dtd">
<svg version="1.1" id="Layer_1" xmlns="http://www.w3.org/2000/svg" xmlns:xlink="http://www.w3.org/1999/xlink" x="0px" y="0px"
	 viewBox="0 0 374 139" enable-background="new 0 0 374 139" xml:space="preserve">
<g>
	<path d="M40.9,59.9h-9.8v-6.5h26.7v6.5H48v25.7h-7.1V59.9z"/>
	<path d="M63.2,53.4h7.1v14.1l13.1-14.1h8.6L78.8,67.1l13.7,18.5H84L74,71.9l-3.7,3.9v9.8h-7.1V53.4z"/>
	<path d="M96.3,69.6L96.3,69.6c0-9.2,6.8-16.7,16.1-16.7c5.8,0,9.2,2.1,12.5,5.2l-1.7,1.7c-2.8-2.7-6-4.7-10.9-4.7
		c-7.7,0-13.6,6.3-13.6,14.4v0.1c0,8.1,5.9,14.5,13.6,14.5c4.6,0,7.8-1.8,11.1-5l1.6,1.6c-3.4,3.4-7.1,5.6-12.8,5.6
		C103.1,86.2,96.3,78.8,96.3,69.6z"/>
	<path d="M131.6,53.4h13.5c4,0,7.1,1.2,9.1,3.2c1.5,1.5,2.4,3.7,2.4,6v0.1c0,5.4-4,8.5-9.4,9.2l10.6,13.8h-3l-10.3-13.3H134v13.3
		h-2.4V53.4z M144.9,70.1c5.4,0,9.4-2.7,9.4-7.4v-0.1c0-4.3-3.4-7-9.2-7h-11v14.5H144.9z"/>
	<path d="M164.9,53.4h22.9v2.2h-20.5v12.7h18.4v2.2h-18.4v12.9H188v2.2h-23.1V53.4z"/>
	<path d="M207.9,53.2h2.3l15,32.4h-2.6l-4.1-9h-19l-4.1,9h-2.5L207.9,53.2z M217.5,74.4l-8.5-18.6l-8.5,18.6H217.5z"/>
	<path d="M236.8,55.6h-11.2v-2.2h24.8v2.2h-11.2v30h-2.4V55.6z"/>
	<path d="M258,53.4h2.4v32.2H258V53.4z"/>
	<path d="M267.6,53.4h2.7L282.8,83l12.7-29.6h2.5l-14.2,32.4h-2.1L267.6,53.4z"/>
	<path d="M304.8,53.4h22.9v2.2h-20.5v12.7h18.4v2.2h-18.4v12.9H328v2.2h-23.1V53.4z"/>
</g>
</svg>
