<?xml version="1.0" encoding="utf-8"?>
<!-- Generator: Adobe Illustrator 18.1.0, SVG Export Plug-In . SVG Version: 6.00 Build 0)  -->
<!DOCTYPE svg PUBLIC "-//W3C//DTD SVG 1.1//EN" "http://www.w3.org/Graphics/SVG/1.1/DTD/svg11.dtd">
<svg version="1.1" id="Layer_1" xmlns="http://www.w3.org/2000/svg" xmlns:xlink="http://www.w3.org/1999/xlink" x="0px" y="0px"
	 viewBox="0 0 72 72" enable-background="new 0 0 72 72" xml:space="preserve">
<path d="M44.7,29.7c-0.8,0.3-1.6,0.6-2.5,0.7c0.9-0.5,1.6-1.4,1.9-2.4c-0.8,0.5-1.7,0.8-2.7,1c-0.8-0.8-1.9-1.3-3.1-1.3
	C36,27.7,34,29.6,34,32c0,0.3,0,0.7,0.1,1c-3.5-0.2-6.7-1.9-8.8-4.5c-0.4,0.6-0.6,1.4-0.6,2.1c0,1.5,0.8,2.8,1.9,3.6
	c-0.7,0-1.4-0.2-1.9-0.5c0,0,0,0,0,0.1c0,2.1,1.5,3.8,3.4,4.2c-0.4,0.1-0.7,0.1-1.1,0.1c-0.3,0-0.5,0-0.8-0.1c0.5,1.7,2.1,2.9,4,3
	c-1.5,1.1-3.3,1.8-5.3,1.8c-0.3,0-0.7,0-1-0.1c1.9,1.2,4.1,1.9,6.5,1.9c7.9,0,12.1-6.5,12.1-12.1c0-0.2,0-0.4,0-0.6
	C43.4,31.3,44.1,30.6,44.7,29.7z"/>
</svg>
